<?xml version="1.0" standalone="no"?>
<!DOCTYPE svg PUBLIC "-//W3C//DTD SVG 20010904//EN"
 "http://www.w3.org/TR/2001/REC-SVG-20010904/DTD/svg10.dtd">
<svg version="1.0" xmlns="http://www.w3.org/2000/svg"
 width="110.000000pt" height="110.000000pt" viewBox="0 0 110.000000 110.000000"
 preserveAspectRatio="xMidYMid meet">
<metadata>
Created by potrace 1.15, written by Peter Selinger 2001-2017
</metadata>
<g transform="translate(0.000000,110.000000) scale(0.100000,-0.100000)"
fill="#000000" stroke="none">
<path d="M562 1034 c-88 -44 -122 -116 -122 -261 l0 -83 -75 0 -75 0 0 -95 0
-95 75 0 75 0 0 -230 0 -230 95 0 95 0 0 230 0 230 79 0 79 0 11 75 c18 124
25 115 -80 115 l-92 0 5 81 c6 104 15 112 113 117 l75 4 0 84 0 84 -103 0
c-91 0 -109 -3 -155 -26z"/>
</g>
</svg>
