<?xml version="1.0" standalone="no"?>
<!DOCTYPE svg PUBLIC "-//W3C//DTD SVG 20010904//EN"
 "http://www.w3.org/TR/2001/REC-SVG-20010904/DTD/svg10.dtd">
<svg version="1.0" xmlns="http://www.w3.org/2000/svg"
 width="110.000000pt" height="110.000000pt" viewBox="0 0 110.000000 110.000000"
 preserveAspectRatio="xMidYMid meet">
<metadata>
Created by potrace 1.15, written by Peter Selinger 2001-2017
</metadata>
<g transform="translate(0.000000,110.000000) scale(0.100000,-0.100000)"
fill="#000000" stroke="none">
<path d="M372 961 c-113 -11 -166 -43 -207 -126 l-30 -60 0 -230 c0 -221 1
-232 23 -278 29 -58 79 -101 141 -118 65 -20 451 -19 505 0 45 16 110 72 134
115 25 46 31 474 8 544 -20 59 -76 116 -133 136 -51 18 -320 28 -441 17z m425
-98 c20 -10 46 -31 57 -46 20 -27 21 -42 21 -267 0 -227 -1 -240 -21 -267 -12
-15 -36 -37 -55 -48 -31 -18 -52 -20 -249 -20 -198 0 -218 2 -254 21 -25 12
-48 35 -60 60 -19 36 -21 56 -21 254 0 197 2 218 20 249 46 79 100 92 358 86
137 -3 174 -7 204 -22z"/>
<path d="M460 745 c-94 -43 -144 -145 -119 -247 16 -70 84 -139 152 -156 182
-46 330 144 241 309 -39 71 -91 103 -173 106 -44 2 -78 -2 -101 -12z m177 -98
c32 -30 37 -41 41 -90 4 -55 3 -58 -36 -97 -35 -35 -45 -40 -86 -40 -108 0
-168 84 -130 180 22 54 63 80 127 80 40 0 53 -5 84 -33z"/>
</g>
</svg>
