<?xml version="1.0" standalone="no"?>
<!DOCTYPE svg PUBLIC "-//W3C//DTD SVG 20010904//EN"
 "http://www.w3.org/TR/2001/REC-SVG-20010904/DTD/svg10.dtd">
<svg version="1.0" xmlns="http://www.w3.org/2000/svg"
 width="110.000000pt" height="110.000000pt" viewBox="0 0 110.000000 110.000000"
 preserveAspectRatio="xMidYMid meet">
<metadata>
Created by potrace 1.15, written by Peter Selinger 2001-2017
</metadata>
<g transform="translate(0.000000,110.000000) scale(0.100000,-0.100000)"
fill="#000000" stroke="none">
<path d="M515 782 c-344 -132 -410 -161 -413 -178 -4 -29 11 -38 113 -69 50
-15 95 -33 101 -39 7 -6 28 -63 49 -126 21 -63 43 -121 50 -129 19 -20 45 -7
104 53 l53 54 108 -79 c116 -85 153 -97 170 -57 15 38 142 677 138 701 -2 17
-10 22 -33 24 -18 1 -191 -60 -440 -155z m313 19 c-1 -5 -86 -84 -188 -175
-102 -91 -188 -176 -192 -189 -3 -12 -6 -39 -7 -59 -2 -77 -14 -69 -47 33 -18
57 -31 105 -28 108 6 7 458 291 462 291 2 0 2 -4 0 -9z"/>
</g>
</svg>
