<?xml version="1.0" standalone="no"?>
<!DOCTYPE svg PUBLIC "-//W3C//DTD SVG 20010904//EN"
 "http://www.w3.org/TR/2001/REC-SVG-20010904/DTD/svg10.dtd">
<svg version="1.0" xmlns="http://www.w3.org/2000/svg"
 width="110.000000pt" height="110.000000pt" viewBox="0 0 110.000000 110.000000"
 preserveAspectRatio="xMidYMid meet">
<metadata>
Created by potrace 1.15, written by Peter Selinger 2001-2017
</metadata>
<g transform="translate(0.000000,110.000000) scale(0.100000,-0.100000)"
fill="#000000" stroke="none">
<path d="M434 853 c-18 -2 -40 -13 -49 -23 -17 -19 -17 -20 8 -29 31 -12 40
-41 41 -126 0 -72 -10 -115 -27 -115 -29 0 -103 106 -148 209 -25 60 -33 63
-149 59 -79 -3 -85 -5 -88 -25 -4 -28 82 -197 158 -312 69 -104 136 -170 210
-208 48 -24 66 -27 150 -28 94 0 95 0 98 25 15 120 40 128 127 40 33 -33 75
-65 93 -71 33 -11 174 -5 208 8 39 15 1 85 -100 183 -31 30 -56 61 -56 70 0 9
31 58 70 110 79 108 103 151 98 183 -3 21 -8 22 -120 25 l-116 3 -47 -95 c-25
-52 -64 -114 -85 -138 -38 -41 -40 -42 -55 -24 -11 15 -15 48 -15 137 0 89 -3
119 -14 129 -16 12 -140 21 -192 13z"/>
</g>
</svg>
