<?xml version="1.0" standalone="no"?>
<!DOCTYPE svg PUBLIC "-//W3C//DTD SVG 20010904//EN"
 "http://www.w3.org/TR/2001/REC-SVG-20010904/DTD/svg10.dtd">
<svg version="1.0" xmlns="http://www.w3.org/2000/svg"
 width="110.000000pt" height="110.000000pt" viewBox="0 0 110.000000 110.000000"
 preserveAspectRatio="xMidYMid meet">
<metadata>
Created by potrace 1.15, written by Peter Selinger 2001-2017
</metadata>
<g transform="translate(0.000000,110.000000) scale(0.100000,-0.100000)"
fill="#000000" stroke="none">
<path d="M247 851 c-129 -14 -152 -70 -145 -346 4 -175 14 -209 65 -242 25
-16 60 -18 378 -18 390 0 385 -1 422 68 16 28 18 59 18 232 0 318 13 308 -390
311 -154 1 -311 -1 -348 -5z m323 -243 c55 -29 100 -55 100 -58 0 -7 -195
-110 -209 -110 -7 0 -11 35 -11 110 0 68 4 110 10 110 6 0 55 -24 110 -52z"/>
</g>
</svg>
